<svg class="w-5 h-5 mr-2" xmlns="http://www.w3.org/2000/svg" viewBox="0 0 48 48">
  <path fill="#4285F4" d="M47.5 24.4c0-1.7-.1-3.4-.3-5H24v9.5h13.2c-.5 2.6-2 4.8-4.1 6.3l6.6 5.1c3.9-3.6 6.3-8.9 6.3-15z"/>
  <path fill="#34A853" d="M24 48c5.6 0 10.2-1.9 13.6-5.1L31 38c-2 1.3-4.5 2.1-7 2.1-5.4 0-10-3.7-11.6-8.6l-7.2 5.6c3.4 6.7 10.4 11.3 18.8 11.3z"/>
  <path fill="#FBBC05" d="M12.4 31.5C11.8 29.9 11.5 28.1 11.5 26s.3-3.9.9-5.5L5.2 15c-1.6 3.3-2.5 7-2.5 11s.9 7.7 2.5 11l7.2-5.5z"/>
  <path fill="#EA4335" d="M24 9.5c2.8 0 5.3 1 7.3 2.8l5.4-5.4C33.8 3.3 29.2 1 24 1 15.6 1 8.6 5.5 5.2 12l7.2 5.5C14 12.7 18.6 9.5 24 9.5z"/>
</svg>
